<?xml version="1.0" standalone="no"?>
<!DOCTYPE svg PUBLIC "-//W3C//DTD SVG 20010904//EN"
 "http://www.w3.org/TR/2001/REC-SVG-20010904/DTD/svg10.dtd">
<svg version="1.0" xmlns="http://www.w3.org/2000/svg"
 width="260.000000pt" height="260.000000pt" viewBox="0 0 260.000000 260.000000"
 preserveAspectRatio="xMidYMid meet">
<metadata>
Created by potrace 1.11, written by Peter Selinger 2001-2013
</metadata>
<g transform="translate(0.000000,260.000000) scale(0.100000,-0.100000)"
fill="#000000" stroke="none">
<path d="M0 1300 l0 -1300 1300 0 1300 0 0 1300 0 1300 -1300 0 -1300 0 0
-1300z m1275 1142 c52 -26 89 -66 114 -122 19 -42 21 -65 21 -370 0 -179 5
-354 11 -390 14 -88 42 -135 96 -160 l43 -20 0 -73 0 -73 -35 -12 c-41 -16
-80 -59 -96 -110 -8 -24 -14 -168 -18 -423 l-6 -386 -30 -49 c-17 -26 -50 -62
-73 -79 -41 -28 -50 -30 -153 -33 l-110 -4 3 88 c3 87 4 89 28 92 54 6 70 13
87 39 16 24 19 66 24 393 6 419 8 427 91 514 l49 51 -26 18 c-31 23 -77 89
-95 137 -10 26 -15 128 -19 392 -6 342 -7 358 -27 385 -16 21 -32 29 -65 33
l-44 5 -3 79 c-2 44 0 86 3 94 9 23 177 12 230 -16z"/>
</g>
</svg>
